<svg width="32" height="29" viewBox="0 0 32 29" fill="none" xmlns="http://www.w3.org/2000/svg">
<path fill-rule="evenodd" clip-rule="evenodd" d="M9.16139 19.5417C9.79622 19.8779 10.52 20.0223 11.24 19.9565C11.9601 19.8907 12.6433 19.6177 13.2023 19.1724C13.7613 18.7271 14.1704 18.1299 14.3771 17.4574C14.5839 16.7849 14.5789 16.0678 14.3627 15.3981C14.0888 14.5441 13.9912 13.6461 14.0756 12.7555C14.16 11.8648 14.4246 10.9991 14.8545 10.208C15.2843 9.41685 15.8708 8.7158 16.5804 8.14503C17.29 7.57426 18.1087 7.14507 18.9896 6.88196C19.6728 6.67431 20.2773 6.27518 20.7273 5.73486C21.1773 5.19454 21.4525 4.53713 21.5183 3.84534C21.5842 3.15356 21.4377 2.45833 21.0973 1.8472C20.7569 1.23602 20.2379 0.736191 19.6055 0.410634C18.973 0.0850776 18.2555 -0.0517171 17.5432 0.017543C16.8309 0.0867599 16.1556 0.358883 15.6022 0.799715C15.0489 1.2405 14.6423 1.83029 14.4336 2.49482C14.2249 3.15934 14.2234 3.86893 14.4293 4.53428C14.9698 6.25198 14.787 8.10755 13.921 9.6948C13.055 11.282 11.5763 12.4717 9.80853 13.0035C9.11068 13.1998 8.48962 13.595 8.02579 14.1377C7.56196 14.6805 7.27669 15.3459 7.20697 16.0477C7.13728 16.7496 7.28629 17.4556 7.63475 18.0744C7.98321 18.6931 8.51504 19.1961 9.16139 19.5182V19.5417ZM31.4729 23.4506C31.2164 23.0543 30.881 22.7116 30.4863 22.4425C30.0917 22.1735 29.6458 21.9834 29.1746 21.8835C27.3719 21.4767 25.8085 20.3939 24.8259 18.8719C23.8433 17.3498 23.5216 15.5122 23.9309 13.7607C24.0883 13.0837 24.036 12.3767 23.7806 11.7284C23.5253 11.0801 23.0783 10.5195 22.4957 10.117C21.9131 9.71455 21.2209 9.48809 20.5061 9.46606C19.7913 9.44406 19.0857 9.62747 18.478 9.99331C17.8703 10.3592 17.3875 10.8911 17.0903 11.5223C16.7931 12.1536 16.6947 12.856 16.8076 13.5413C16.9203 14.2266 17.2393 14.8643 17.7244 15.3742C18.2094 15.8842 18.839 16.2437 19.5339 16.4076C20.433 16.6044 21.2831 16.9715 22.0357 17.4877C22.7882 18.0039 23.4284 18.6593 23.9195 19.416C24.4105 20.1729 24.7429 21.0163 24.8974 21.8979C25.052 22.7796 25.0257 23.6822 24.82 24.554C24.6983 25.116 24.7199 25.6984 24.8833 26.2504C25.0466 26.8023 25.3466 27.3072 25.757 27.7209C26.1675 28.1346 26.6759 28.4446 27.2381 28.624C27.8004 28.8033 28.3992 28.8464 28.9825 28.7497C29.5659 28.6529 30.116 28.4192 30.5849 28.0689C31.0539 27.7185 31.4274 27.2623 31.6729 26.7397C31.9185 26.2172 32.0286 25.6444 31.9938 25.0711C31.9589 24.4978 31.7801 23.9414 31.4729 23.4506ZM17.1045 19.2891C17.5428 19.0926 18.017 18.9829 18.4995 18.9665C19.0922 18.9518 19.6796 19.0784 20.2103 19.335C20.741 19.5916 21.1987 19.9705 21.5436 20.4385C21.8885 20.9066 22.1099 21.4494 22.1886 22.0197C22.2672 22.59 22.2007 23.1702 21.9948 23.7098C21.7888 24.2493 21.4498 24.7317 21.0074 25.1147C20.5649 25.4977 20.0326 25.7697 19.4568 25.9068C18.8809 26.044 18.2793 26.0421 17.7044 25.9014C17.1295 25.7607 16.5988 25.4855 16.1589 25.0997C15.4832 24.4909 14.6903 24.0175 13.8257 23.7065C12.9611 23.3955 12.0418 23.2531 11.1204 23.2874C10.199 23.3218 9.29366 23.5322 8.45617 23.9066C7.61872 24.2811 6.86563 24.8122 6.23999 25.4695C5.82873 25.8831 5.3194 26.1926 4.75642 26.3712C4.19349 26.5498 3.59402 26.5919 3.01043 26.494C2.42683 26.396 1.87683 26.161 1.40838 25.8093C0.939927 25.4576 0.567335 25 0.323044 24.4765C0.0787521 23.9529 -0.0297284 23.3793 0.00697978 22.8056C0.0437324 22.232 0.224562 21.6758 0.533782 21.1856C0.842957 20.6954 1.27106 20.2861 1.78079 19.9934C2.29049 19.7007 2.86631 19.5335 3.4579 19.5064C3.93853 19.4882 4.41809 19.5628 4.86868 19.7261C5.31931 19.8893 5.73199 20.1378 6.08276 20.4572C7.44034 21.6764 9.24015 22.3244 11.0887 22.2595C12.9371 22.1946 14.684 21.4221 15.9472 20.111C16.2728 19.765 16.6663 19.4856 17.1045 19.2891Z" fill="#3E334E"/>
</svg>
